# xmcd
#
# Track frame offsets: 
#        150
#        18150
#        35712
#        55182
#        76832
#        89752
#        105297
#        121280
#        140717
#        162467
#
# Disc length: 2442 seconds
#
# Revision: 1
# Processed by: cddbd v1.5.2PL0 Copyright (c) Steve Scherf et al.
# Submitted via: ExactAudioCopy v0.99pb5
#
DISCID=7e09880a
DTITLE=The Darins - The Darins
DYEAR=1999
DGENRE=Contemporary Christian
TTITLE0=All Along the Road
TTITLE1=Realize
TTITLE2=Crosses and Crowns
TTITLE3=You are the Only One
TTITLE4=Make your Mind Up
TTITLE5=Take me by the Hand
TTITLE6=My Faith In You
TTITLE7=Feet of the Savior
TTITLE8=Believe
TTITLE9=He Carries Those Who Carry the Cross
EXTD=
EXTT0=
EXTT1=
EXTT2=
EXTT3=
EXTT4=
EXTT5=
EXTT6=
EXTT7=
EXTT8=
EXTT9=
PLAYORDER=
